<?xml version="1.0" encoding="UTF-8" standalone="no"?>
<!DOCTYPE svg PUBLIC "-//W3C//DTD SVG 1.1//EN"
 "http://www.w3.org/Graphics/SVG/1.1/DTD/svg11.dtd">
<!-- Generated by graphviz version 12.2.1 (20241206.2353)
 -->
<!-- Title: G Pages: 1 -->
<svg width="395pt" height="189pt"
 viewBox="0.00 0.00 394.95 188.95" xmlns="http://www.w3.org/2000/svg" xmlns:xlink="http://www.w3.org/1999/xlink">
<g id="graph0" class="graph" transform="scale(1 1) rotate(0) translate(21.6 167.35)">
<title>G</title>
<polygon fill="#111111" stroke="none" points="-21.6,21.6 -21.6,-167.35 373.35,-167.35 373.35,21.6 -21.6,21.6"/>
<!-- check_declare.ts -->
<g id="node1" class="node">
<title>check_declare.ts</title>
<path fill="none" stroke="#c6c5fe" d="M207.83,-145.75C207.83,-145.75 106.42,-145.75 106.42,-145.75 102.46,-145.75 98.5,-141.79 98.5,-137.83 98.5,-137.83 98.5,-129.92 98.5,-129.92 98.5,-125.96 102.46,-122 106.42,-122 106.42,-122 207.83,-122 207.83,-122 211.79,-122 215.75,-125.96 215.75,-129.92 215.75,-129.92 215.75,-137.83 215.75,-137.83 215.75,-141.79 211.79,-145.75 207.83,-145.75"/>
<text text-anchor="middle" x="157.12" y="-128.45" font-family="Arial" font-size="14.00" fill="#c6c5fe">check_declare.ts</text>
</g>
<!-- get_options.ts -->
<g id="node2" class="node">
<title>get_options.ts</title>
<path fill="none" stroke="#cfffac" d="M343.83,-105.75C343.83,-105.75 259.67,-105.75 259.67,-105.75 255.71,-105.75 251.75,-101.79 251.75,-97.83 251.75,-97.83 251.75,-89.92 251.75,-89.92 251.75,-85.96 255.71,-82 259.67,-82 259.67,-82 343.83,-82 343.83,-82 347.79,-82 351.75,-85.96 351.75,-89.92 351.75,-89.92 351.75,-97.83 351.75,-97.83 351.75,-101.79 347.79,-105.75 343.83,-105.75"/>
<text text-anchor="middle" x="301.75" y="-88.45" font-family="Arial" font-size="14.00" fill="#cfffac">get_options.ts</text>
</g>
<!-- check_declare.ts&#45;&gt;get_options.ts -->
<g id="edge1" class="edge">
<title>check_declare.ts&#45;&gt;get_options.ts</title>
<path fill="none" stroke="#757575" d="M202.08,-121.55C215.91,-117.67 231.35,-113.34 245.84,-109.27"/>
<polygon fill="#757575" stroke="#757575" points="246.55,-112.71 255.24,-106.64 244.66,-105.97 246.55,-112.71"/>
</g>
<!-- files_check.ts -->
<g id="node3" class="node">
<title>files_check.ts</title>
<path fill="none" stroke="#cfffac" d="M197.71,-65.75C197.71,-65.75 116.54,-65.75 116.54,-65.75 112.58,-65.75 108.62,-61.79 108.62,-57.83 108.62,-57.83 108.62,-49.92 108.62,-49.92 108.62,-45.96 112.58,-42 116.54,-42 116.54,-42 197.71,-42 197.71,-42 201.67,-42 205.62,-45.96 205.62,-49.92 205.62,-49.92 205.62,-57.83 205.62,-57.83 205.62,-61.79 201.67,-65.75 197.71,-65.75"/>
<text text-anchor="middle" x="157.12" y="-48.45" font-family="Arial" font-size="14.00" fill="#cfffac">files_check.ts</text>
</g>
<!-- index.ts -->
<g id="node4" class="node">
<title>index.ts</title>
<path fill="none" stroke="#c6c5fe" d="M54.58,-85.75C54.58,-85.75 7.92,-85.75 7.92,-85.75 3.96,-85.75 0,-81.79 0,-77.83 0,-77.83 0,-69.92 0,-69.92 0,-65.96 3.96,-62 7.92,-62 7.92,-62 54.58,-62 54.58,-62 58.54,-62 62.5,-65.96 62.5,-69.92 62.5,-69.92 62.5,-77.83 62.5,-77.83 62.5,-81.79 58.54,-85.75 54.58,-85.75"/>
<text text-anchor="middle" x="31.25" y="-68.45" font-family="Arial" font-size="14.00" fill="#c6c5fe">index.ts</text>
</g>
<!-- index.ts&#45;&gt;check_declare.ts -->
<g id="edge2" class="edge">
<title>index.ts&#45;&gt;check_declare.ts</title>
<path fill="none" stroke="#757575" d="M55.41,-86.12C68.06,-92.72 84.06,-100.92 98.5,-107.88 104.79,-110.91 111.52,-114.04 118.08,-117.03"/>
<polygon fill="#757575" stroke="#757575" points="116.22,-120.03 126.77,-120.97 119.1,-113.66 116.22,-120.03"/>
</g>
<!-- index.ts&#45;&gt;get_options.ts -->
<g id="edge4" class="edge">
<title>index.ts&#45;&gt;get_options.ts</title>
<path fill="none" stroke="#757575" d="M62.79,-76.15C105.78,-79.35 185.04,-85.26 240.22,-89.37"/>
<polygon fill="#757575" stroke="#757575" points="239.86,-92.85 250.1,-90.1 240.38,-85.87 239.86,-92.85"/>
</g>
<!-- index.ts&#45;&gt;files_check.ts -->
<g id="edge3" class="edge">
<title>index.ts&#45;&gt;files_check.ts</title>
<path fill="none" stroke="#757575" d="M62.87,-68.93C73.3,-67.25 85.33,-65.31 97.21,-63.39"/>
<polygon fill="#757575" stroke="#757575" points="97.69,-66.86 107,-61.81 96.57,-59.94 97.69,-66.86"/>
</g>
<!-- type_check.ts -->
<g id="node5" class="node">
<title>type_check.ts</title>
<path fill="none" stroke="#c6c5fe" d="M198.46,-23.75C198.46,-23.75 115.79,-23.75 115.79,-23.75 111.83,-23.75 107.88,-19.79 107.88,-15.83 107.88,-15.83 107.88,-7.92 107.88,-7.92 107.88,-3.96 111.83,0 115.79,0 115.79,0 198.46,0 198.46,0 202.42,0 206.38,-3.96 206.38,-7.92 206.38,-7.92 206.38,-15.83 206.38,-15.83 206.38,-19.79 202.42,-23.75 198.46,-23.75"/>
<text text-anchor="middle" x="157.12" y="-6.45" font-family="Arial" font-size="14.00" fill="#c6c5fe">type_check.ts</text>
</g>
<!-- index.ts&#45;&gt;type_check.ts -->
<g id="edge5" class="edge">
<title>index.ts&#45;&gt;type_check.ts</title>
<path fill="none" stroke="#757575" d="M49.96,-61.53C62.99,-52.79 81.34,-41.2 98.5,-32.88 101.61,-31.37 104.86,-29.9 108.16,-28.5"/>
<polygon fill="#757575" stroke="#757575" points="109.4,-31.77 117.37,-24.79 106.78,-25.28 109.4,-31.77"/>
</g>
<!-- type_check.ts&#45;&gt;get_options.ts -->
<g id="edge6" class="edge">
<title>type_check.ts&#45;&gt;get_options.ts</title>
<path fill="none" stroke="#757575" d="M196.58,-24.22C203.11,-26.79 209.72,-29.69 215.75,-32.88 237.9,-44.58 260.86,-61.38 277.32,-74.38"/>
<polygon fill="#757575" stroke="#757575" points="275.05,-77.05 285.03,-80.59 279.44,-71.59 275.05,-77.05"/>
</g>
</g>
</svg>
