<?xml version="1.0" encoding="UTF-8" standalone="no"?>
<!DOCTYPE svg PUBLIC "-//W3C//DTD SVG 1.1//EN"
 "http://www.w3.org/Graphics/SVG/1.1/DTD/svg11.dtd">
<!-- Generated by graphviz version 12.2.1 (20241206.2353)
 -->
<!-- Title: G Pages: 1 -->
<svg width="1462pt" height="607pt"
 viewBox="0.00 0.00 1462.45 607.26" xmlns="http://www.w3.org/2000/svg" xmlns:xlink="http://www.w3.org/1999/xlink">
<g id="graph0" class="graph" transform="scale(1 1) rotate(0) translate(21.6 585.66)">
<title>G</title>
<polygon fill="#111111" stroke="none" points="-21.6,21.6 -21.6,-585.66 1440.85,-585.66 1440.85,21.6 -21.6,21.6"/>
<!-- bundle.ts -->
<g id="node1" class="node">
<title>bundle.ts</title>
<path fill="none" stroke="#c6c5fe" d="M309.33,-415.75C309.33,-415.75 254.42,-415.75 254.42,-415.75 250.46,-415.75 246.5,-411.79 246.5,-407.83 246.5,-407.83 246.5,-399.92 246.5,-399.92 246.5,-395.96 250.46,-392 254.42,-392 254.42,-392 309.33,-392 309.33,-392 313.29,-392 317.25,-395.96 317.25,-399.92 317.25,-399.92 317.25,-407.83 317.25,-407.83 317.25,-411.79 313.29,-415.75 309.33,-415.75"/>
<text text-anchor="middle" x="281.88" y="-398.45" font-family="Arial" font-size="14.00" fill="#c6c5fe">bundle.ts</text>
</g>
<!-- ../node_modules/@lwe8/tcolor/dist/index.d.ts -->
<g id="node2" class="node">
<title>../node_modules/@lwe8/tcolor/dist/index.d.ts</title>
<path fill="none" stroke="#cfffac" d="M1093.08,-139.75C1093.08,-139.75 823.67,-139.75 823.67,-139.75 819.71,-139.75 815.75,-135.79 815.75,-131.83 815.75,-131.83 815.75,-123.92 815.75,-123.92 815.75,-119.96 819.71,-116 823.67,-116 823.67,-116 1093.08,-116 1093.08,-116 1097.04,-116 1101,-119.96 1101,-123.92 1101,-123.92 1101,-131.83 1101,-131.83 1101,-135.79 1097.04,-139.75 1093.08,-139.75"/>
<text text-anchor="middle" x="958.38" y="-122.45" font-family="Arial" font-size="14.00" fill="#cfffac">../node_modules/@lwe8/tcolor/dist/index.d.ts</text>
</g>
<!-- bundle.ts&#45;&gt;../node_modules/@lwe8/tcolor/dist/index.d.ts -->
<g id="edge1" class="edge">
<title>bundle.ts&#45;&gt;../node_modules/@lwe8/tcolor/dist/index.d.ts</title>
<path fill="none" stroke="#757575" d="M285.69,-391.91C292.81,-363.71 313.85,-291.99 353.25,-245.88 405.74,-184.44 428.77,-171.44 505.75,-146.88 606.48,-114.73 726.28,-111.16 817.18,-114.99"/>
<polygon fill="#757575" stroke="#757575" points="817.02,-118.48 827.17,-115.45 817.34,-111.49 817.02,-118.48"/>
</g>
<!-- ../node_modules/typescript/lib/typescript.d.ts -->
<g id="node3" class="node">
<title>../node_modules/typescript/lib/typescript.d.ts</title>
<path fill="none" stroke="#cfffac" d="M1411.33,-239.75C1411.33,-239.75 1144.92,-239.75 1144.92,-239.75 1140.96,-239.75 1137,-235.79 1137,-231.83 1137,-231.83 1137,-223.92 1137,-223.92 1137,-219.96 1140.96,-216 1144.92,-216 1144.92,-216 1411.33,-216 1411.33,-216 1415.29,-216 1419.25,-219.96 1419.25,-223.92 1419.25,-223.92 1419.25,-231.83 1419.25,-231.83 1419.25,-235.79 1415.29,-239.75 1411.33,-239.75"/>
<text text-anchor="middle" x="1278.12" y="-222.45" font-family="Arial" font-size="14.00" fill="#cfffac">../node_modules/typescript/lib/typescript.d.ts</text>
</g>
<!-- bundle.ts&#45;&gt;../node_modules/typescript/lib/typescript.d.ts -->
<g id="edge2" class="edge">
<title>bundle.ts&#45;&gt;../node_modules/typescript/lib/typescript.d.ts</title>
<path fill="none" stroke="#757575" d="M303.97,-416.14C308.36,-418.7 312.95,-421.37 317.25,-423.88 333.26,-433.2 335.37,-440.04 353.25,-444.88 403.23,-458.39 417.97,-445.13 469.75,-444.88 750.37,-443.52 847.73,-551.72 1101,-430.88 1183.3,-391.61 1242.59,-293.98 1266.04,-249.99"/>
<polygon fill="#757575" stroke="#757575" points="1269.01,-251.86 1270.52,-241.37 1262.8,-248.63 1269.01,-251.86"/>
</g>
<!-- check/index.ts -->
<g id="node4" class="node">
<title>check/index.ts</title>
<path fill="none" stroke="#c6c5fe" d="M454.33,-278.75C454.33,-278.75 368.67,-278.75 368.67,-278.75 364.71,-278.75 360.75,-274.79 360.75,-270.83 360.75,-270.83 360.75,-262.92 360.75,-262.92 360.75,-258.96 364.71,-255 368.67,-255 368.67,-255 454.33,-255 454.33,-255 458.29,-255 462.25,-258.96 462.25,-262.92 462.25,-262.92 462.25,-270.83 462.25,-270.83 462.25,-274.79 458.29,-278.75 454.33,-278.75"/>
<text text-anchor="middle" x="411.5" y="-261.45" font-family="Arial" font-size="14.00" fill="#c6c5fe">check/index.ts</text>
</g>
<!-- bundle.ts&#45;&gt;check/index.ts -->
<g id="edge3" class="edge">
<title>bundle.ts&#45;&gt;check/index.ts</title>
<path fill="none" stroke="#757575" d="M300.62,-391.64C306.16,-387.51 312.15,-382.72 317.25,-377.88 347.42,-349.21 377.53,-311.26 395.06,-287.98"/>
<polygon fill="#757575" stroke="#757575" points="397.7,-290.3 400.86,-280.19 392.08,-286.12 397.7,-290.3"/>
</g>
<!-- opt/helpers.ts -->
<g id="node5" class="node">
<title>opt/helpers.ts</title>
<path fill="none" stroke="#cfffac" d="M998.96,-421.75C998.96,-421.75 917.79,-421.75 917.79,-421.75 913.83,-421.75 909.88,-417.79 909.88,-413.83 909.88,-413.83 909.88,-405.92 909.88,-405.92 909.88,-401.96 913.83,-398 917.79,-398 917.79,-398 998.96,-398 998.96,-398 1002.92,-398 1006.88,-401.96 1006.88,-405.92 1006.88,-405.92 1006.88,-413.83 1006.88,-413.83 1006.88,-417.79 1002.92,-421.75 998.96,-421.75"/>
<text text-anchor="middle" x="958.38" y="-404.45" font-family="Arial" font-size="14.00" fill="#cfffac">opt/helpers.ts</text>
</g>
<!-- bundle.ts&#45;&gt;opt/helpers.ts -->
<g id="edge4" class="edge">
<title>bundle.ts&#45;&gt;opt/helpers.ts</title>
<path fill="none" stroke="#757575" d="M310.7,-416.23C323.41,-421.22 338.81,-426.39 353.25,-428.88 393.77,-435.86 572.52,-432.46 779.75,-422.88 819.29,-421.05 863.71,-417.8 898.24,-415"/>
<polygon fill="#757575" stroke="#757575" points="898.36,-418.5 908.04,-414.2 897.78,-411.53 898.36,-418.5"/>
</g>
<!-- opt/madge.ts -->
<g id="node6" class="node">
<title>opt/madge.ts</title>
<path fill="none" stroke="#c6c5fe" d="M450.96,-377.75C450.96,-377.75 372.04,-377.75 372.04,-377.75 368.08,-377.75 364.12,-373.79 364.12,-369.83 364.12,-369.83 364.12,-361.92 364.12,-361.92 364.12,-357.96 368.08,-354 372.04,-354 372.04,-354 450.96,-354 450.96,-354 454.92,-354 458.88,-357.96 458.88,-361.92 458.88,-361.92 458.88,-369.83 458.88,-369.83 458.88,-373.79 454.92,-377.75 450.96,-377.75"/>
<text text-anchor="middle" x="411.5" y="-360.45" font-family="Arial" font-size="14.00" fill="#c6c5fe">opt/madge.ts</text>
</g>
<!-- bundle.ts&#45;&gt;opt/madge.ts -->
<g id="edge5" class="edge">
<title>bundle.ts&#45;&gt;opt/madge.ts</title>
<path fill="none" stroke="#757575" d="M317.75,-393.49C330.33,-389.75 344.81,-385.43 358.53,-381.35"/>
<polygon fill="#757575" stroke="#757575" points="359.29,-384.77 367.88,-378.57 357.29,-378.07 359.29,-384.77"/>
</g>
<!-- opt/merge_file.ts -->
<g id="node7" class="node">
<title>opt/merge_file.ts</title>
<path fill="none" stroke="#c6c5fe" d="M461.83,-419.75C461.83,-419.75 361.17,-419.75 361.17,-419.75 357.21,-419.75 353.25,-415.79 353.25,-411.83 353.25,-411.83 353.25,-403.92 353.25,-403.92 353.25,-399.96 357.21,-396 361.17,-396 361.17,-396 461.83,-396 461.83,-396 465.79,-396 469.75,-399.96 469.75,-403.92 469.75,-403.92 469.75,-411.83 469.75,-411.83 469.75,-415.79 465.79,-419.75 461.83,-419.75"/>
<text text-anchor="middle" x="411.5" y="-402.45" font-family="Arial" font-size="14.00" fill="#c6c5fe">opt/merge_file.ts</text>
</g>
<!-- bundle.ts&#45;&gt;opt/merge_file.ts -->
<g id="edge6" class="edge">
<title>bundle.ts&#45;&gt;opt/merge_file.ts</title>
<path fill="none" stroke="#757575" d="M317.75,-404.97C325.26,-405.2 333.45,-405.46 341.75,-405.72"/>
<polygon fill="#757575" stroke="#757575" points="341.46,-409.21 351.57,-406.03 341.68,-402.22 341.46,-409.21"/>
</g>
<!-- check/check_declare.ts -->
<g id="node9" class="node">
<title>check/check_declare.ts</title>
<path fill="none" stroke="#c6c5fe" d="M712.96,-179.75C712.96,-179.75 572.54,-179.75 572.54,-179.75 568.58,-179.75 564.62,-175.79 564.62,-171.83 564.62,-171.83 564.62,-163.92 564.62,-163.92 564.62,-159.96 568.58,-156 572.54,-156 572.54,-156 712.96,-156 712.96,-156 716.92,-156 720.88,-159.96 720.88,-163.92 720.88,-163.92 720.88,-171.83 720.88,-171.83 720.88,-175.79 716.92,-179.75 712.96,-179.75"/>
<text text-anchor="middle" x="642.75" y="-162.45" font-family="Arial" font-size="14.00" fill="#c6c5fe">check/check_declare.ts</text>
</g>
<!-- check/index.ts&#45;&gt;check/check_declare.ts -->
<g id="edge17" class="edge">
<title>check/index.ts&#45;&gt;check/check_declare.ts</title>
<path fill="none" stroke="#757575" d="M424.19,-254.61C440.72,-238.06 472.62,-208.93 505.75,-193.88 520.51,-187.17 536.93,-182.19 553.11,-178.5"/>
<polygon fill="#757575" stroke="#757575" points="553.71,-181.95 562.77,-176.45 552.27,-175.1 553.71,-181.95"/>
</g>
<!-- check/get_options.ts -->
<g id="node10" class="node">
<title>check/get_options.ts</title>
<path fill="none" stroke="#c6c5fe" d="M1019.96,-219.75C1019.96,-219.75 896.79,-219.75 896.79,-219.75 892.83,-219.75 888.88,-215.79 888.88,-211.83 888.88,-211.83 888.88,-203.92 888.88,-203.92 888.88,-199.96 892.83,-196 896.79,-196 896.79,-196 1019.96,-196 1019.96,-196 1023.92,-196 1027.88,-199.96 1027.88,-203.92 1027.88,-203.92 1027.88,-211.83 1027.88,-211.83 1027.88,-215.79 1023.92,-219.75 1019.96,-219.75"/>
<text text-anchor="middle" x="958.38" y="-202.45" font-family="Arial" font-size="14.00" fill="#c6c5fe">check/get_options.ts</text>
</g>
<!-- check/index.ts&#45;&gt;check/get_options.ts -->
<g id="edge19" class="edge">
<title>check/index.ts&#45;&gt;check/get_options.ts</title>
<path fill="none" stroke="#757575" d="M434.71,-254.61C453.13,-245.12 480.33,-232.66 505.75,-226.88 633.25,-197.88 786.1,-198.58 877.29,-202.6"/>
<polygon fill="#757575" stroke="#757575" points="876.98,-206.09 887.14,-203.06 877.31,-199.1 876.98,-206.09"/>
</g>
<!-- check/files_check.ts -->
<g id="node11" class="node">
<title>check/files_check.ts</title>
<path fill="none" stroke="#c6c5fe" d="M702.83,-301.75C702.83,-301.75 582.67,-301.75 582.67,-301.75 578.71,-301.75 574.75,-297.79 574.75,-293.83 574.75,-293.83 574.75,-285.92 574.75,-285.92 574.75,-281.96 578.71,-278 582.67,-278 582.67,-278 702.83,-278 702.83,-278 706.79,-278 710.75,-281.96 710.75,-285.92 710.75,-285.92 710.75,-293.83 710.75,-293.83 710.75,-297.79 706.79,-301.75 702.83,-301.75"/>
<text text-anchor="middle" x="642.75" y="-284.45" font-family="Arial" font-size="14.00" fill="#c6c5fe">check/files_check.ts</text>
</g>
<!-- check/index.ts&#45;&gt;check/files_check.ts -->
<g id="edge18" class="edge">
<title>check/index.ts&#45;&gt;check/files_check.ts</title>
<path fill="none" stroke="#757575" d="M462.53,-271.89C492,-274.85 529.93,-278.66 563.31,-282.01"/>
<polygon fill="#757575" stroke="#757575" points="562.63,-285.45 572.93,-282.97 563.32,-278.49 562.63,-285.45"/>
</g>
<!-- check/type_check.ts -->
<g id="node12" class="node">
<title>check/type_check.ts</title>
<path fill="none" stroke="#c6c5fe" d="M703.58,-259.75C703.58,-259.75 581.92,-259.75 581.92,-259.75 577.96,-259.75 574,-255.79 574,-251.83 574,-251.83 574,-243.92 574,-243.92 574,-239.96 577.96,-236 581.92,-236 581.92,-236 703.58,-236 703.58,-236 707.54,-236 711.5,-239.96 711.5,-243.92 711.5,-243.92 711.5,-251.83 711.5,-251.83 711.5,-255.79 707.54,-259.75 703.58,-259.75"/>
<text text-anchor="middle" x="642.75" y="-242.45" font-family="Arial" font-size="14.00" fill="#c6c5fe">check/type_check.ts</text>
</g>
<!-- check/index.ts&#45;&gt;check/type_check.ts -->
<g id="edge20" class="edge">
<title>check/index.ts&#45;&gt;check/type_check.ts</title>
<path fill="none" stroke="#757575" d="M462.53,-262.73C491.76,-260.31 529.32,-257.19 562.5,-254.44"/>
<polygon fill="#757575" stroke="#757575" points="562.38,-257.97 572.06,-253.65 561.8,-250.99 562.38,-257.97"/>
</g>
<!-- ../node_modules/@types/madge/index.d.ts -->
<g id="node16" class="node">
<title>../node_modules/@types/madge/index.d.ts</title>
<path fill="none" stroke="#cfffac" d="M771.83,-381.75C771.83,-381.75 513.67,-381.75 513.67,-381.75 509.71,-381.75 505.75,-377.79 505.75,-373.83 505.75,-373.83 505.75,-365.92 505.75,-365.92 505.75,-361.96 509.71,-358 513.67,-358 513.67,-358 771.83,-358 771.83,-358 775.79,-358 779.75,-361.96 779.75,-365.92 779.75,-365.92 779.75,-373.83 779.75,-373.83 779.75,-377.79 775.79,-381.75 771.83,-381.75"/>
<text text-anchor="middle" x="642.75" y="-364.45" font-family="Arial" font-size="14.00" fill="#cfffac">../node_modules/@types/madge/index.d.ts</text>
</g>
<!-- opt/madge.ts&#45;&gt;../node_modules/@types/madge/index.d.ts -->
<g id="edge35" class="edge">
<title>opt/madge.ts&#45;&gt;../node_modules/@types/madge/index.d.ts</title>
<path fill="none" stroke="#757575" d="M459.17,-366.69C469.9,-366.88 481.88,-367.09 494.43,-367.3"/>
<polygon fill="#757575" stroke="#757575" points="494.01,-370.8 504.07,-367.47 494.13,-363.8 494.01,-370.8"/>
</g>
<!-- opt/merge_file.ts&#45;&gt;opt/helpers.ts -->
<g id="edge36" class="edge">
<title>opt/merge_file.ts&#45;&gt;opt/helpers.ts</title>
<path fill="none" stroke="#757575" d="M470.04,-408.09C574.19,-408.47 792.92,-409.27 898.23,-409.66"/>
<polygon fill="#757575" stroke="#757575" points="898.06,-413.16 908.07,-409.69 898.09,-406.16 898.06,-413.16"/>
</g>
<!-- bundle_dts.ts -->
<g id="node8" class="node">
<title>bundle_dts.ts</title>
<path fill="none" stroke="#c6c5fe" d="M194.71,-415.75C194.71,-415.75 114.29,-415.75 114.29,-415.75 110.33,-415.75 106.38,-411.79 106.38,-407.83 106.38,-407.83 106.38,-399.92 106.38,-399.92 106.38,-395.96 110.33,-392 114.29,-392 114.29,-392 194.71,-392 194.71,-392 198.67,-392 202.62,-395.96 202.62,-399.92 202.62,-399.92 202.62,-407.83 202.62,-407.83 202.62,-411.79 198.67,-415.75 194.71,-415.75"/>
<text text-anchor="middle" x="154.5" y="-398.45" font-family="Arial" font-size="14.00" fill="#c6c5fe">bundle_dts.ts</text>
</g>
<!-- bundle_dts.ts&#45;&gt;bundle.ts -->
<g id="edge8" class="edge">
<title>bundle_dts.ts&#45;&gt;bundle.ts</title>
<path fill="none" stroke="#757575" d="M202.9,-403.88C213.38,-403.88 224.47,-403.88 234.89,-403.88"/>
<polygon fill="#757575" stroke="#757575" points="234.79,-407.38 244.79,-403.88 234.79,-400.38 234.79,-407.38"/>
</g>
<!-- bundle_dts.ts&#45;&gt;../node_modules/typescript/lib/typescript.d.ts -->
<g id="edge7" class="edge">
<title>bundle_dts.ts&#45;&gt;../node_modules/typescript/lib/typescript.d.ts</title>
<path fill="none" stroke="#757575" d="M165.5,-416.01C197.19,-453.01 299.83,-561.88 410.5,-561.88 410.5,-561.88 410.5,-561.88 643.75,-561.88 850.7,-561.88 926.74,-585.52 1101,-473.88 1189.03,-417.48 1246.64,-300.07 1267.92,-250.61"/>
<polygon fill="#757575" stroke="#757575" points="1271.11,-252.07 1271.75,-241.49 1264.65,-249.36 1271.11,-252.07"/>
</g>
<!-- bundle_dts.ts&#45;&gt;check/index.ts -->
<g id="edge9" class="edge">
<title>bundle_dts.ts&#45;&gt;check/index.ts</title>
<path fill="none" stroke="#757575" d="M178.13,-391.72C223.38,-367.41 325.18,-312.71 377.73,-284.48"/>
<polygon fill="#757575" stroke="#757575" points="379.07,-287.73 386.22,-279.92 375.76,-281.57 379.07,-287.73"/>
</g>
<!-- bundle_dts.ts&#45;&gt;opt/helpers.ts -->
<g id="edge10" class="edge">
<title>bundle_dts.ts&#45;&gt;opt/helpers.ts</title>
<path fill="none" stroke="#757575" d="M200.62,-416.24C240.42,-426.42 300.18,-439.95 353.25,-444.88 421.89,-451.25 647.51,-454.34 779.75,-441.88 819.55,-438.12 863.79,-430.16 898.17,-423.12"/>
<polygon fill="#757575" stroke="#757575" points="898.87,-426.55 907.95,-421.09 897.44,-419.7 898.87,-426.55"/>
</g>
<!-- check/check_declare.ts&#45;&gt;../node_modules/@lwe8/tcolor/dist/index.d.ts -->
<g id="edge11" class="edge">
<title>check/check_declare.ts&#45;&gt;../node_modules/@lwe8/tcolor/dist/index.d.ts</title>
<path fill="none" stroke="#757575" d="M721.28,-157.99C759.91,-153.06 807.25,-147.02 849.37,-141.65"/>
<polygon fill="#757575" stroke="#757575" points="849.55,-145.16 859.03,-140.42 848.67,-138.21 849.55,-145.16"/>
</g>
<!-- check/check_declare.ts&#45;&gt;../node_modules/typescript/lib/typescript.d.ts -->
<g id="edge12" class="edge">
<title>check/check_declare.ts&#45;&gt;../node_modules/typescript/lib/typescript.d.ts</title>
<path fill="none" stroke="#757575" d="M721,-166.7C812.22,-166.32 968.34,-168.84 1101,-186.88 1142.68,-192.54 1188.99,-203.51 1223.65,-212.68"/>
<polygon fill="#757575" stroke="#757575" points="1222.45,-215.98 1233.01,-215.19 1224.26,-209.22 1222.45,-215.98"/>
</g>
<!-- check/check_declare.ts&#45;&gt;check/get_options.ts -->
<g id="edge13" class="edge">
<title>check/check_declare.ts&#45;&gt;check/get_options.ts</title>
<path fill="none" stroke="#757575" d="M721.28,-177.76C768.72,-183.81 829.29,-191.54 877.21,-197.65"/>
<polygon fill="#757575" stroke="#757575" points="876.61,-201.1 886.98,-198.9 877.5,-194.16 876.61,-201.1"/>
</g>
<!-- check/get_options.ts&#45;&gt;../node_modules/typescript/lib/typescript.d.ts -->
<g id="edge16" class="edge">
<title>check/get_options.ts&#45;&gt;../node_modules/typescript/lib/typescript.d.ts</title>
<path fill="none" stroke="#757575" d="M1028.32,-212.21C1056.86,-214.01 1091.16,-216.17 1125.05,-218.3"/>
<polygon fill="#757575" stroke="#757575" points="1124.81,-221.79 1135.01,-218.93 1125.25,-214.81 1124.81,-221.79"/>
</g>
<!-- check/files_check.ts&#45;&gt;../node_modules/@lwe8/tcolor/dist/index.d.ts -->
<g id="edge14" class="edge">
<title>check/files_check.ts&#45;&gt;../node_modules/@lwe8/tcolor/dist/index.d.ts</title>
<path fill="none" stroke="#757575" d="M711.21,-292.34C734.91,-290.07 760.43,-283.72 779.75,-268.88 811.31,-244.62 787.34,-214.75 815.75,-186.88 836.55,-166.46 865.45,-152.72 891.72,-143.68"/>
<polygon fill="#757575" stroke="#757575" points="892.53,-147.09 900.96,-140.67 890.36,-140.44 892.53,-147.09"/>
</g>
<!-- check/files_check.ts&#45;&gt;opt/helpers.ts -->
<g id="edge15" class="edge">
<title>check/files_check.ts&#45;&gt;opt/helpers.ts</title>
<path fill="none" stroke="#757575" d="M711.2,-298.69C733.41,-302.66 757.98,-308.23 779.75,-315.88 835.39,-335.42 894.98,-370.13 929.06,-391.46"/>
<polygon fill="#757575" stroke="#757575" points="927.18,-394.42 937.5,-396.81 930.93,-388.5 927.18,-394.42"/>
</g>
<!-- check/type_check.ts&#45;&gt;../node_modules/@lwe8/tcolor/dist/index.d.ts -->
<g id="edge21" class="edge">
<title>check/type_check.ts&#45;&gt;../node_modules/@lwe8/tcolor/dist/index.d.ts</title>
<path fill="none" stroke="#757575" d="M675.84,-235.6C732.66,-213.86 850.95,-168.59 914.62,-144.23"/>
<polygon fill="#757575" stroke="#757575" points="915.59,-147.61 923.68,-140.77 913.09,-141.07 915.59,-147.61"/>
</g>
<!-- check/type_check.ts&#45;&gt;../node_modules/typescript/lib/typescript.d.ts -->
<g id="edge22" class="edge">
<title>check/type_check.ts&#45;&gt;../node_modules/typescript/lib/typescript.d.ts</title>
<path fill="none" stroke="#757575" d="M711.83,-245.73C810.01,-242.62 993.97,-236.82 1125.38,-232.67"/>
<polygon fill="#757575" stroke="#757575" points="1125.33,-236.17 1135.21,-232.36 1125.11,-229.17 1125.33,-236.17"/>
</g>
<!-- check/type_check.ts&#45;&gt;check/get_options.ts -->
<g id="edge23" class="edge">
<title>check/type_check.ts&#45;&gt;check/get_options.ts</title>
<path fill="none" stroke="#757575" d="M711.8,-239.2C760.46,-232.99 826.11,-224.62 877.29,-218.09"/>
<polygon fill="#757575" stroke="#757575" points="877.67,-221.57 887.14,-216.83 876.78,-214.63 877.67,-221.57"/>
</g>
<!-- compile_npm.ts -->
<g id="node13" class="node">
<title>compile_npm.ts</title>
<path fill="none" stroke="#c6c5fe" d="M202.58,-278.75C202.58,-278.75 106.42,-278.75 106.42,-278.75 102.46,-278.75 98.5,-274.79 98.5,-270.83 98.5,-270.83 98.5,-262.92 98.5,-262.92 98.5,-258.96 102.46,-255 106.42,-255 106.42,-255 202.58,-255 202.58,-255 206.54,-255 210.5,-258.96 210.5,-262.92 210.5,-262.92 210.5,-270.83 210.5,-270.83 210.5,-274.79 206.54,-278.75 202.58,-278.75"/>
<text text-anchor="middle" x="154.5" y="-261.45" font-family="Arial" font-size="14.00" fill="#c6c5fe">compile_npm.ts</text>
</g>
<!-- compile_npm.ts&#45;&gt;bundle.ts -->
<g id="edge26" class="edge">
<title>compile_npm.ts&#45;&gt;bundle.ts</title>
<path fill="none" stroke="#757575" d="M168,-278.85C179.33,-289.82 196.37,-306.62 210.5,-321.88 229.33,-342.19 249.85,-366.35 263.85,-383.16"/>
<polygon fill="#757575" stroke="#757575" points="260.86,-385.04 269.93,-390.51 266.25,-380.58 260.86,-385.04"/>
</g>
<!-- compile_npm.ts&#45;&gt;../node_modules/@lwe8/tcolor/dist/index.d.ts -->
<g id="edge24" class="edge">
<title>compile_npm.ts&#45;&gt;../node_modules/@lwe8/tcolor/dist/index.d.ts</title>
<path fill="none" stroke="#757575" d="M174.16,-254.56C208.43,-232.36 284.24,-185.24 353.25,-155.88 528.69,-81.24 589.34,-100.25 779.75,-109.88 799.73,-110.88 820.93,-112.53 841.46,-114.43"/>
<polygon fill="#757575" stroke="#757575" points="840.99,-117.9 851.28,-115.36 841.65,-110.93 840.99,-117.9"/>
</g>
<!-- compile_npm.ts&#45;&gt;../node_modules/typescript/lib/typescript.d.ts -->
<g id="edge25" class="edge">
<title>compile_npm.ts&#45;&gt;../node_modules/typescript/lib/typescript.d.ts</title>
<path fill="none" stroke="#757575" d="M161.99,-254.7C187.23,-209.22 283.68,-51.88 410.5,-51.88 410.5,-51.88 410.5,-51.88 643.75,-51.88 848.44,-51.88 909.49,-34.61 1101,-106.88 1163.23,-130.36 1224.69,-180.3 1255.93,-208.12"/>
<polygon fill="#757575" stroke="#757575" points="1253.38,-210.54 1263.15,-214.65 1258.08,-205.35 1253.38,-210.54"/>
</g>
<!-- compile_npm.ts&#45;&gt;check/index.ts -->
<g id="edge27" class="edge">
<title>compile_npm.ts&#45;&gt;check/index.ts</title>
<path fill="none" stroke="#757575" d="M210.83,-266.88C251.53,-266.88 306.87,-266.88 348.96,-266.88"/>
<polygon fill="#757575" stroke="#757575" points="348.95,-270.38 358.95,-266.88 348.95,-263.38 348.95,-270.38"/>
</g>
<!-- compile_npm.ts&#45;&gt;opt/helpers.ts -->
<g id="edge29" class="edge">
<title>compile_npm.ts&#45;&gt;opt/helpers.ts</title>
<path fill="none" stroke="#757575" d="M210.81,-275.62C222.58,-277.41 234.95,-279.25 246.5,-280.88 305.65,-289.19 721.58,-335.33 779.75,-348.88 828.1,-360.14 881.76,-379.58 917.32,-393.49"/>
<polygon fill="#757575" stroke="#757575" points="915.76,-396.63 926.34,-397.05 918.33,-390.12 915.76,-396.63"/>
</g>
<!-- config.ts -->
<g id="node14" class="node">
<title>config.ts</title>
<path fill="none" stroke="#c6c5fe" d="M307.08,-23.75C307.08,-23.75 256.67,-23.75 256.67,-23.75 252.71,-23.75 248.75,-19.79 248.75,-15.83 248.75,-15.83 248.75,-7.92 248.75,-7.92 248.75,-3.96 252.71,0 256.67,0 256.67,0 307.08,0 307.08,0 311.04,0 315,-3.96 315,-7.92 315,-7.92 315,-15.83 315,-15.83 315,-19.79 311.04,-23.75 307.08,-23.75"/>
<text text-anchor="middle" x="281.88" y="-6.45" font-family="Arial" font-size="14.00" fill="#c6c5fe">config.ts</text>
</g>
<!-- compile_npm.ts&#45;&gt;config.ts -->
<g id="edge28" class="edge">
<title>compile_npm.ts&#45;&gt;config.ts</title>
<path fill="none" stroke="#757575" d="M160.64,-254.83C170.54,-231.55 192.82,-178.74 210.5,-133.88 227.21,-91.48 219.25,-74.4 246.5,-37.88 248.18,-35.62 250.11,-33.46 252.18,-31.43"/>
<polygon fill="#757575" stroke="#757575" points="254.14,-34.36 259.47,-25.2 249.6,-29.04 254.14,-34.36"/>
</g>
<!-- config.ts&#45;&gt;../node_modules/@lwe8/tcolor/dist/index.d.ts -->
<g id="edge30" class="edge">
<title>config.ts&#45;&gt;../node_modules/@lwe8/tcolor/dist/index.d.ts</title>
<path fill="none" stroke="#757575" d="M315.43,-14.29C395.24,-20.6 606.73,-39.64 779.75,-75.88 824.92,-85.34 875.33,-100.55 910.87,-112.08"/>
<polygon fill="#757575" stroke="#757575" points="909.37,-115.28 919.96,-115.06 911.55,-108.62 909.37,-115.28"/>
</g>
<!-- index.ts -->
<g id="node15" class="node">
<title>index.ts</title>
<path fill="none" stroke="#c6c5fe" d="M54.58,-317.75C54.58,-317.75 7.92,-317.75 7.92,-317.75 3.96,-317.75 0,-313.79 0,-309.83 0,-309.83 0,-301.92 0,-301.92 0,-297.96 3.96,-294 7.92,-294 7.92,-294 54.58,-294 54.58,-294 58.54,-294 62.5,-297.96 62.5,-301.92 62.5,-301.92 62.5,-309.83 62.5,-309.83 62.5,-313.79 58.54,-317.75 54.58,-317.75"/>
<text text-anchor="middle" x="31.25" y="-300.45" font-family="Arial" font-size="14.00" fill="#c6c5fe">index.ts</text>
</g>
<!-- index.ts&#45;&gt;bundle.ts -->
<g id="edge31" class="edge">
<title>index.ts&#45;&gt;bundle.ts</title>
<path fill="none" stroke="#757575" d="M62.99,-317.99C107.41,-335.5 189.67,-367.92 239.42,-387.53"/>
<polygon fill="#757575" stroke="#757575" points="237.82,-390.67 248.41,-391.08 240.39,-384.16 237.82,-390.67"/>
</g>
<!-- index.ts&#45;&gt;bundle_dts.ts -->
<g id="edge32" class="edge">
<title>index.ts&#45;&gt;bundle_dts.ts</title>
<path fill="none" stroke="#757575" d="M47.12,-317.89C67.75,-334.57 105.3,-364.91 129.81,-384.73"/>
<polygon fill="#757575" stroke="#757575" points="127.36,-387.24 137.33,-390.81 131.76,-381.8 127.36,-387.24"/>
</g>
<!-- index.ts&#45;&gt;compile_npm.ts -->
<g id="edge33" class="edge">
<title>index.ts&#45;&gt;compile_npm.ts</title>
<path fill="none" stroke="#757575" d="M62.85,-296.03C75.48,-291.97 90.44,-287.16 104.53,-282.63"/>
<polygon fill="#757575" stroke="#757575" points="105.19,-286.09 113.64,-279.7 103.05,-279.43 105.19,-286.09"/>
</g>
<!-- index.ts&#45;&gt;config.ts -->
<g id="edge34" class="edge">
<title>index.ts&#45;&gt;config.ts</title>
<path fill="none" stroke="#757575" d="M40.47,-293.5C67.23,-253.73 155.37,-126.59 246.5,-37.88 248.86,-35.58 251.43,-33.3 254.06,-31.1"/>
<polygon fill="#757575" stroke="#757575" points="256.16,-33.9 261.86,-24.97 251.84,-28.4 256.16,-33.9"/>
</g>
</g>
</svg>
